<svg xmlns="http://www.w3.org/2000/svg" xmlns:xlink="http://www.w3.org/1999/xlink" version="1.1" id="Layer_1" x="0px" y="0px" style="enable-background:new 0 0 1240 827.2;" xml:space="preserve" viewBox="188.1 304 863.9 219.4">
<style type="text/css">
	.st0{fill:#007ABF;}
	.st1{fill:url(#SVGID_1_);}
	.st2{fill:#B70000;}
	.st3{fill:url(#SVGID_2_);}
	.st4{fill:url(#SVGID_3_);}
	.st5{fill:url(#SVGID_4_);}
	.st6{fill:url(#SVGID_5_);}
</style>
<g>
	<path class="st0" d="M435.3,409.3v-43c0-3.3,2.8-6.1,6.1-6.1h75.8c9.4,0,17.1,7.6,17.1,17c0,4.2-1.5,7.8-3.9,10.8   c2.4,2.8,3.9,6.6,3.9,10.6c0,9.4-7.7,16.8-17.1,16.8h-75.8C438.1,415.4,435.3,412.6,435.3,409.3z M447.5,372.4v9.4h70.3   c2.5,0,4.7-1.9,4.7-4.6c0-2.5-2.3-4.8-4.8-4.8H447.5z M447.5,403.2h70.2c2.5,0,4.8-2.1,4.8-4.7c0-2.7-2.3-4.7-4.8-4.7h-70.2V403.2z   "/>
	<path class="st0" d="M559.3,415.4c-3.3,0-6.1-2.8-6.1-6.1v-43c0-3.3,2.8-6.1,6.1-6.1c3.3,0,6.1,2.8,6.1,6.1v43   C565.4,412.6,562.6,415.4,559.3,415.4z"/>
	<path class="st0" d="M676.6,360.2c3.3,0,6.1,2.8,6.1,6.1v36.8c0,6.8-5.3,12.3-12.1,12.3c-2.4,0-4.7-0.8-6.6-1.9L606,378   c-3.2-1.9-5.2-3-6.6-3c-2.5,0-2.9,3.3-2.9,9.4v24.9c0,3.3-2.8,6.1-6.1,6.1c-3.3,0-6.1-2.8-6.1-6.1v-36.8c0-6.8,5.3-12.3,12.1-12.3   c2.4,0,4.7,0.8,6.6,1.9l57.9,35.4c3.2,1.9,5.2,3,6.6,3c2.5,0,2.9-3.3,2.9-9.4v-24.9C670.5,363,673.3,360.2,676.6,360.2z"/>
	<path class="st0" d="M712.4,413.1c-1.1,1.4-2.9,2.3-4.7,2.3c-3.3,0-6.1-2.8-6.1-6.1c0-1.4,0.4-2.7,1.3-3.7l30.7-41.4   c2.9-3.9,7.8-6.6,13.3-6.6c5.1,0,9.9,2.3,12.8,6.2l30.7,41.1c1,1.1,1.8,2.7,1.8,4.3c0,3.3-2.8,6.1-6.1,6.1c-1.9,0-3.7-0.9-4.8-2.4   l-29.5-39.3c-1.1-1.4-3-3.4-4.9-3.4c-1.9,0-3.8,2.1-4.8,3.4L712.4,413.1z"/>
	<path class="st0" d="M906.7,403.9c1.8,1.4,3.4,3.2,3.4,5.4c0,3.3-2.8,6.1-6.1,6.1c-1.6,0-3-0.8-4.3-1.8   c-13.7-10.1-29.1-19.7-47.3-19.7h-25.2c-2.1,0.4-3.9,2.1-3.9,4.7v10.8c0,3.3-2.9,6.1-6.1,6.1c-3.3,0-6.1-2.8-6.1-6.1v-12.1   c0-8.5,6.7-15.4,15.3-15.4h67.1c2.5,0,4.8-2,4.8-4.7c0-2.5-2.3-4.7-4.8-4.7h-76.3c-3.3,0-6.1-2.8-6.1-6.1c0-3.3,2.8-6.1,6.1-6.1   h75.8c9.4,0,17.1,7.5,17.1,16.8c0,9.4-7.7,16.8-17.1,16.8h-0.5C897.1,396.6,901.8,400.1,906.7,403.9z"/>
	<path class="st0" d="M980,415.4c-3.3,0-6.1-2.8-6.1-6.1v-15.4c-12.7,0-23.5-6.3-42.4-22.8c-1.4-1.1-2.4-2.9-2.4-4.8   c0-3.3,2.8-6.1,6.1-6.1c1.6,0,3,0.8,4.3,1.8c21.6,19,27.5,19.6,40.6,19.7c13,0,18.5-0.5,40.4-19.7c1.3-1,2.7-1.8,4.3-1.8   c3.3,0,6.1,2.8,6.1,6.1c0,1.9-1,3.7-2.4,4.8c-18.5,16.3-30.7,22.8-42.4,22.8v15.4C986,412.6,983.3,415.4,980,415.4z"/>
	<path class="st0" d="M458.7,431.9h72.5c3.3,0,6.1,2.8,6.1,6.1c0,3.3-2.8,6.1-6.1,6.1h-69.8c-11.1,0-13.5,8.5-13.8,14.5V481   c0,3.3-2.8,6.1-6.1,6.1c-3.3,0-6.1-2.8-6.1-6.1v-21.5C435.5,446.7,444.2,431.9,458.7,431.9z M534.4,459.5c0,3.3-2.8,6.1-6.1,6.1   h-65.5c-3.3,0-6.1-2.8-6.1-6.1c0-3.3,2.8-6.1,6.1-6.1h65.5C531.6,453.4,534.4,456.2,534.4,459.5z"/>
	<path class="st0" d="M582.5,474.9h50.4c11.6,0,14.2-9.4,14.2-15.4v-21.4c0-3.3,2.8-6.1,6.1-6.1c3.3,0,6.1,2.8,6.1,6.1v21.4   c0,12.8-8.7,27.6-23.3,27.6h-57.7c-13.8-0.8-22-15.1-22-27.6v-21.4c0-3.3,2.8-6.1,6.1-6.1c3.3,0,6.1,2.8,6.1,6.1v21.4   C568.3,465.6,570.8,474.9,582.5,474.9z"/>
	<path class="st0" d="M678.1,448.7c0-9.4,7.5-16.8,16.8-16.8h76.8c3.3,0,6.1,2.8,6.1,6.1c0,3.3-2.8,6.1-6.1,6.1h-77   c-2.5,0-4.8,2-4.8,4.7c0,2.5,2.3,4.7,4.8,4.7h70c9.4,0,17,7.6,17,17c0,9.4-7.6,16.7-17,16.7H688c-3.3,0-6.1-2.8-6.1-6.1   c0-3.3,2.8-6.1,6.1-6.1h77.2c2.5,0,4.7-2,4.7-4.6c0-2.7-2.1-4.8-4.7-4.8h-70.2C685.6,465.6,678.1,458.1,678.1,448.7z"/>
	<path class="st0" d="M806.6,487.1c-3.3,0-6.1-2.8-6.1-6.1v-43c0-3.3,2.8-6.1,6.1-6.1c3.3,0,6.1,2.8,6.1,6.1v43   C812.7,484.3,809.9,487.1,806.6,487.1z"/>
	<path class="st0" d="M911.4,487.1h-57.7c-13.8-0.8-22-15.1-22-27.6c0-12.8,8.7-27.6,23.3-27.6h57.7c13.8,0.8,22,15.1,22,27.6   C934.7,472.3,925.9,487.1,911.4,487.1z M922.9,459.5c0-6.1-2.5-15.4-14.2-15.4h-51.1c-11.6,0-14.2,9.4-14.2,15.4   s2.5,15.4,14.2,15.4h51.1C920.4,474.9,922.9,465.6,922.9,459.5z"/>
	<path class="st0" d="M1045.9,431.9c3.3,0,6.1,2.8,6.1,6.1v36.8c0,6.8-5.3,12.3-12.1,12.3c-2.4,0-4.7-0.8-6.6-1.9l-57.9-35.4   c-3.2-1.9-5.2-3-6.6-3c-2.5,0-2.9,3.3-2.9,9.4V481c0,3.3-2.8,6.1-6.1,6.1c-3.3,0-6.1-2.8-6.1-6.1v-36.8c0-6.8,5.3-12.3,12.1-12.3   c2.4,0,4.7,0.8,6.6,1.9l57.9,35.4c3.2,1.9,5.2,3,6.6,3c2.5,0,2.9-3.3,2.9-9.4V438C1039.8,434.7,1042.6,431.9,1045.9,431.9z"/>
	<g>
		<g>
			
				<linearGradient id="SVGID_1_" gradientUnits="userSpaceOnUse" x1="272.143" y1="485.2958" x2="351.9819" y2="529.0785" gradientTransform="matrix(0.9265 0.3764 -0.3764 0.9265 202.1501 -171.4541)">
				<stop offset="9.138700e-02" style="stop-color:#00B1FF"/>
				<stop offset="1" style="stop-color:#007ABF"/>
			</linearGradient>
			<path class="st1" d="M359.8,429l-51.1,52.2c-8.2,8.4-22.4,2.6-22.4-9.1l0,0c0-3.4,1.3-6.7,3.7-9.2l37.5-38.3L280,405.4l19.8-20.2     l55.3,22.4c3.2,1.3,5.9,3.6,7.3,6.7C364.6,419.4,363.5,425.2,359.8,429z"/>
			<g>
				<polygon class="st2" points="280,405.4 280,405.4 299.7,385.2 299.7,385.2     "/>
				
					<linearGradient id="SVGID_2_" gradientUnits="userSpaceOnUse" x1="316.6878" y1="487.6058" x2="333.7813" y2="493.0256" gradientTransform="matrix(0.9265 0.3764 -0.3764 0.9265 202.1501 -171.4541)">
					<stop offset="0" style="stop-color:#0046A6"/>
					<stop offset="1" style="stop-color:#0046A6;stop-opacity:0"/>
				</linearGradient>
				<polygon class="st3" points="325.9,395.8 306.2,416 320.5,421.8 340.3,401.6     "/>
			</g>
			<linearGradient id="SVGID_3_" gradientUnits="userSpaceOnUse" x1="263.8488" y1="348.8094" x2="308.6234" y2="426.3613">
				<stop offset="0" style="stop-color:#007ABF"/>
				<stop offset="0.9086" style="stop-color:#00B1FF"/>
			</linearGradient>
			<path class="st4" d="M281,441.7l50.8-51.9c2.4-2.4,3.9-5.7,4-9.1c0.1-5.6-3.2-10.4-8.2-12.4l-51.3-20.8c-8.6-3.5-18,2.9-18,12.2     l0,0c0,5.3,3.2,10.1,8.2,12.1l33.2,13.5l-37.5,38.3c-2.4,2.5-3.7,5.7-3.7,9.2l0,0C258.6,444.3,272.8,450.1,281,441.7z"/>
		</g>
		
			<linearGradient id="SVGID_4_" gradientUnits="userSpaceOnUse" x1="310.7431" y1="494.9537" x2="270.552" y2="483.8665" gradientTransform="matrix(0.9265 0.3764 -0.3764 0.9265 202.1501 -171.4541)">
			<stop offset="0" style="stop-color:#0046A6"/>
			<stop offset="1" style="stop-color:#0046A6;stop-opacity:0"/>
		</linearGradient>
		<path class="st5" d="M319.5,364.9l-43.2-17.5c-8.6-3.5-18,2.9-18,12.2l0,0c0,5.3,3.2,10.1,8.2,12.1l33.2,13.5l-37.5,38.3    L319.5,364.9z"/>
	</g>
	<g>
		<linearGradient id="SVGID_5_" gradientUnits="userSpaceOnUse" x1="237.386" y1="323.1525" x2="358.1472" y2="504.0135">
			<stop offset="9.138700e-02" style="stop-color:#00B1FF"/>
			<stop offset="1" style="stop-color:#007ABF"/>
		</linearGradient>
		<path class="st6" d="M297.8,523.4c-60.5,0-109.7-49.2-109.7-109.7s49.2-109.7,109.7-109.7s109.7,49.2,109.7,109.7    S358.3,523.4,297.8,523.4z M297.8,319c-52.2,0-94.6,42.4-94.6,94.6c0,52.2,42.4,94.6,94.6,94.6s94.6-42.4,94.6-94.6    C392.4,361.4,350,319,297.8,319z"/>
	</g>
</g>
</svg>